<?xml version="1.0" standalone="no"?>
<!DOCTYPE svg PUBLIC "-//W3C//DTD SVG 20010904//EN"
 "http://www.w3.org/TR/2001/REC-SVG-20010904/DTD/svg10.dtd">
<svg version="1.0" xmlns="http://www.w3.org/2000/svg"
 width="512.000000pt" height="512.000000pt" viewBox="0 0 512.000000 512.000000"
 preserveAspectRatio="xMidYMid meet">

<g transform="translate(0.000000,512.000000) scale(0.100000,-0.100000)"
fill="#000000" stroke="none">
<path d="M2745 5106 c-84 -21 -147 -57 -211 -121 -65 -65 -105 -136 -123 -223
-15 -74 -15 -1321 0 -1394 19 -86 59 -158 124 -223 98 -99 198 -135 375 -135
l100 0 0 -240 c0 -222 2 -244 20 -280 23 -45 80 -80 130 -80 17 0 47 9 68 19
20 11 163 146 317 300 l280 281 442 0 c287 0 461 4 495 11 170 36 311 178 347
347 16 74 15 1321 0 1394 -37 172 -176 311 -347 347 -80 17 -1949 14 -2017 -3z
m1995 -306 c26 -13 47 -34 60 -60 19 -38 20 -58 20 -675 0 -617 -1 -637 -20
-675 -13 -26 -34 -47 -60 -60 -38 -19 -58 -20 -525 -20 -428 0 -490 -2 -518
-16 -18 -9 -112 -96 -209 -192 l-178 -176 0 132 c0 158 -14 198 -80 232 -35
18 -59 20 -226 20 -174 0 -189 1 -226 22 -24 14 -48 38 -59 60 -18 35 -19 68
-19 675 1 717 -3 682 76 729 l39 24 943 0 c925 0 944 0 982 -20z"/>
<path d="M3995 4344 c-16 -9 -110 -95 -207 -192 l-178 -177 -62 61 c-86 84
-104 94 -163 94 -56 0 -96 -21 -126 -66 -24 -37 -25 -120 -3 -154 32 -49 250
-262 286 -281 45 -23 88 -24 131 -3 44 22 494 470 518 516 24 48 24 89 -1 138
-35 69 -127 99 -195 64z"/>
<path d="M1195 4193 c-400 -85 -661 -483 -579 -881 60 -290 291 -524 580 -585
67 -15 61 -15 -224 -16 -226 -1 -310 -5 -370 -17 -296 -61 -526 -291 -586
-586 -23 -112 -23 -794 0 -905 31 -152 98 -274 213 -388 l71 -69 0 -314 c0
-294 1 -315 20 -352 13 -26 34 -47 60 -60 38 -20 57 -20 970 -20 913 0 932 0
970 20 22 11 47 34 56 53 10 17 54 142 99 276 l81 245 75 16 c144 31 256 114
317 236 88 175 61 365 -72 511 l-48 53 86 264 c47 145 86 276 86 290 0 46 -37
104 -80 126 -31 16 -59 20 -138 20 l-100 0 -6 34 c-31 163 -184 366 -351 464
-150 87 -234 102 -605 103 -276 1 -283 1 -217 15 144 31 271 101 376 207 138
140 205 289 218 487 27 425 -325 794 -754 789 -43 0 -109 -7 -148 -16z m247
-294 c87 -18 158 -58 223 -123 258 -259 118 -696 -244 -758 -141 -24 -281 22
-386 127 -178 177 -178 454 -1 630 111 111 258 155 408 124z m615 -1503 c72
-19 138 -54 191 -101 45 -40 103 -121 116 -162 l7 -23 -376 0 c-357 0 -378 -1
-415 -20 -52 -26 -61 -46 -159 -342 l-83 -248 -219 0 -219 0 0 245 c0 227 -2
249 -20 285 -23 45 -80 80 -130 80 -50 0 -107 -35 -130 -80 -19 -37 -20 -58
-20 -375 0 -317 1 -338 20 -375 13 -26 34 -47 60 -60 36 -19 58 -20 300 -20
244 0 261 -1 256 -17 -3 -10 -25 -76 -49 -148 l-44 -130 -209 -3 c-127 -2
-232 1 -268 8 -176 34 -317 173 -355 348 -15 71 -15 722 0 794 18 87 58 158
123 223 64 64 127 100 211 121 76 19 1340 19 1412 0z m582 -593 c0 -5 -22 -73
-48 -153 l-47 -145 -169 -5 c-194 -6 -221 -14 -255 -80 -19 -37 -20 -58 -20
-370 0 -313 1 -333 20 -371 18 -35 54 -61 117 -84 2 -1 -19 -66 -46 -146 l-48
-144 -442 -3 c-353 -2 -442 0 -439 10 3 7 112 336 242 731 131 396 241 730
246 743 l10 24 440 0 c242 0 440 -3 439 -7z m-19 -623 c45 -23 80 -80 80 -130
0 -50 -35 -107 -80 -130 -31 -16 -59 -20 -130 -20 l-90 0 0 150 0 150 90 0
c71 0 99 -4 130 -20z m-1583 -584 c2 -1 -19 -67 -46 -147 l-48 -144 -171 -3
-172 -2 0 152 0 153 218 -3 c119 -2 218 -5 219 -6z"/>
</g>
</svg>
